<?xml version="1.0" encoding="UTF-8" standalone="no"?>
<!-- Created with Inkscape (http://www.inkscape.org/) -->

<svg
   xmlns:dc="http://purl.org/dc/elements/1.1/"
   xmlns:cc="http://creativecommons.org/ns#"
   xmlns:rdf="http://www.w3.org/1999/02/22-rdf-syntax-ns#"
   xmlns:svg="http://www.w3.org/2000/svg"
   xmlns="http://www.w3.org/2000/svg"
   xmlns:sodipodi="http://sodipodi.sourceforge.net/DTD/sodipodi-0.dtd"
   xmlns:inkscape="http://www.inkscape.org/namespaces/inkscape"
   version="1.1"
   id="svg29"
   xml:space="preserve"
   width="493.99762"
   height="428.66095"
   viewBox="0 0 493.99762 428.66095"
   sodipodi:docname="prisoners_dilemma_logo.svg"
   inkscape:version="0.92.4 (5da689c313, 2019-01-14)"
   inkscape:export-filename="/home/rick/prisoners_dilemma/prisoners_dilemma_logo.png"
   inkscape:export-xdpi="96"
   inkscape:export-ydpi="96"><metadata
     id="metadata35"><rdf:RDF><cc:Work
         rdf:about=""><dc:format>image/svg+xml</dc:format><dc:type
           rdf:resource="http://purl.org/dc/dcmitype/StillImage" /><dc:title /></cc:Work></rdf:RDF></metadata><defs
     id="defs33">
	
	
	
	
	
	
	
	
	
	
	
	
<clipPath
   clipPathUnits="userSpaceOnUse"
   id="clipPath513"><rect
     id="rect515"
     width="2880.4333"
     height="4260.2207"
     x="-1138.0731"
     y="-3172.5046"
     style="stroke-width:7.5"
     ry="0"
     transform="scale(1,-1)" /></clipPath><clipPath
   clipPathUnits="userSpaceOnUse"
   id="clipPath519"><rect
     id="rect521"
     width="156.74113"
     height="183.09451"
     x="1130.4863"
     y="106.4652"
     style="stroke-width:0.4335396" /></clipPath>
	
	
	
	
	
	
	
	
	
	
	
	
</defs><sodipodi:namedview
     pagecolor="#ffffff"
     bordercolor="#666666"
     borderopacity="1"
     objecttolerance="10"
     gridtolerance="10"
     guidetolerance="10"
     inkscape:pageopacity="0"
     inkscape:pageshadow="2"
     inkscape:window-width="1596"
     inkscape:window-height="861"
     id="namedview31"
     showgrid="false"
     fit-margin-top="0"
     fit-margin-left="0"
     fit-margin-right="0"
     fit-margin-bottom="0"
     inkscape:zoom="0.74467974"
     inkscape:cx="407.31519"
     inkscape:cy="156.98628"
     inkscape:window-x="0"
     inkscape:window-y="18"
     inkscape:window-maximized="0"
     inkscape:current-layer="g37" /><g
     id="g37"
     inkscape:groupmode="layer"
     inkscape:label="ink_ext_XXXXXX"
     transform="matrix(1.3333333,0,0,-1.3333333,463.28635,394.49203)"><g
       id="g39"
       transform="matrix(0.1,0,0,0.1,-347.46481,53.378652)"
       clip-path="url(#clipPath513)"><path
         d="m 1395.39,1038.2 v -0.01 c 89.56,-37.06 215.11,-60.534 353.93,-60.573 0,0.039 0.22,0.039 0.22,0.039 l 0.48,-0.039 h 4.51 c 206.8,0.41 383.51,54.153 454.42,124.313 23.59,23.2 35.07,46.92 35.04,70.39 0.03,23.53 -11.45,47.24 -35.14,70.49 -23.73,23.26 -59.34,45.18 -104.26,63.69 -89.54,37.08 -215.09,60.57 -353.91,60.59 h -0.25 c -0.18,0 -0.45,0 -0.84,-0.02 -1.35,0.02 -2.71,0.02 -4.08,0.02 -206.84,-0.41 -383.55,-54.09 -454.42,-124.37 -23.61,-23.13 -35.13,-46.87 -35.09,-70.4 -0.04,-23.47 11.48,-47.19 35.17,-70.46 23.77,-23.23 59.33,-45.14 104.22,-63.66 z m -1.64,163.47 v 0.01 c 21.13,13.67 49.79,25.07 84.94,34.75 70.18,19.26 165.73,30.92 271.33,30.97 158.8,-0.41 293.37,-25.5 356.37,-65.82 20.64,-13.6 35.45,-29.73 35.84,-52.04 -0.39,-21.86 -15.2,-38.04 -35.98,-51.68 -21.07,-13.66 -49.77,-25.09 -84.94,-34.79 -70.18,-19.25 -165.7,-30.93 -271.29,-30.98 -158.83,0.41 -293.38,25.52 -356.39,65.84 -20.64,13.57 -35.45,29.75 -35.84,52.08 0.39,21.85 15.2,38.01 35.96,51.66 z m 1851.39,107.1 c -0.75,-0.92 -1.53,-1.84 -2.28,-2.76 -43.02,-74.42 -92,-138.93 -144.59,-194.27 -13.04,-13.69 -26.34,-26.9 -39.73,-39.56 -234.9,-257.356 -513.9,-370.95 -704.22,-417.805 -6.21,-1.516 -10.07,-7.402 -8.9,-13.527 1.14,-5.965 6.69,-10.262 12.96,-10.133 0.17,0 0.33,0 0.53,0.008 43.1,2.668 90.14,7.277 139.91,14.668 0.01,0 0.02,0.019 0.02,0.019 0.18,0.02 0.34,0.039 0.54,0.078 0.1,0.012 0.19,0.028 0.29,0.028 217.64,31.593 488.81,121.925 689.89,318.781 165.55,160.883 284.53,392.733 310.4,712.233 0.49,6.01 -3.51,11.86 -9.35,13.63 -5.82,1.77 -11.57,-1.13 -13.35,-6.74 -40.49,-125.58 -112.57,-272.04 -232.12,-374.65 z M 2273.89,781.316 c -5.44,0.239 -9.69,0.45 -12.57,0.625 -2.84,0.129 -3.06,0.254 -4.66,0.278 -0.61,0.054 -1.23,0.164 -2.01,0.386 -4.4,1.274 -9.11,0.118 -12.24,-3.023 -31.5,-31.281 -61.94,-63.148 -90.93,-95.648 -3.34,-3.75 -3.9,-9.059 -1.48,-13.426 2.26,-4.09 6.68,-6.582 11.38,-6.524 0.34,0.008 0.71,0.032 1.06,0.059 89.9,8.523 277.33,38.457 487.23,146.387 5.58,2.89 7.81,9.472 5.1,15.254 -2.67,5.75 -9.34,8.757 -15.38,6.882 -61.91,-18.953 -120.14,-31.226 -171.32,-38.914 -60.07,-8.984 -110.54,-11.964 -147.07,-12.675 -20.22,-0.372 -36.14,-0.059 -47.11,0.339 z M 275.816,1347.55 c 0.102,-0.16 0.2,-0.32 0.305,-0.48 0.172,-0.26 0.348,-0.52 0.527,-0.78 0.051,-0.06 0.09,-0.12 0.125,-0.17 -0.085,0.07 0.2,-0.33 0.532,-0.85 0.683,-1.03 1.777,-2.72 3.215,-4.92 2.71,-4.19 6.644,-10.18 11.484,-17.56 9.691,-14.77 23.113,-34.81 38.152,-56.33 29.879,-42.9 66.407,-91.15 90.371,-116.51 l 0.442,-0.44 c 0.765,-0.59 1.543,-1.21 2.324,-1.81 2.406,-1.21 7.859,-6.97 15.855,-14.95 7.754,-7.96 16.418,-17.31 20.622,-21.97 188.535,-178.444 416.058,-248.905 573.2,-272.421 0.2,-0.019 0.3,-0.039 0.37,-0.039 0.03,-0.011 0.05,-0.011 0.1,-0.019 0.02,-0.008 0.05,-0.008 0.09,-0.008 3.71,-0.598 7.33,-1.098 10.79,-1.645 0.52,-0.066 1.04,-0.125 1.56,-0.132 5.56,-0.137 10.71,3.386 12.46,8.718 1.89,5.84 -0.9,11.946 -6.54,14.348 -166.855,71.219 -515.124,275.298 -750.726,840.148 -0.011,0 -0.011,0 -0.019,-0.01 -1.399,3.39 -2.696,5.09 -4.676,8.66 -0.981,1.66 -2,3.3 -2.863,4.67 -1.028,1.41 -0.981,1.75 -2.532,3.48 0.008,0.01 0.024,0.01 0.032,0.02 -74.2,86.76 -129.993,223.75 -163.438,337.77 -1.617,5.54 -7.015,8.53 -12.594,6.97 -5.574,-1.57 -9.652,-7.19 -9.488,-13.16 8.41,-298.32 72.426,-527.32 170.129,-700.25 0.066,-0.11 0.121,-0.22 0.191,-0.33 z M 1048.04,851.277 c 0.03,-0.41 0,-0.8 0,-1.16 0.01,0.574 0,1.184 -0.07,1.758 0.03,-0.187 0.04,-0.391 0.07,-0.598 z m -0.45,2.563 c 0.05,-0.199 0.11,-0.395 0.15,-0.617 -0.04,0.195 -0.1,0.402 -0.15,0.593 0,0 0,0 0,0.024 z m 0.05,-6.34 c 0,0.02 0,0.02 0.02,0.027 -0.05,-0.117 -0.07,-0.23 -0.12,-0.339 0.03,0.109 0.07,0.203 0.1,0.312 z m 1335.2,34.316 c 1.29,0.039 2.58,0.254 3.82,0.704 125.64,44.382 466.04,198.65 724.99,711.14 2.71,5.41 0.71,12.38 -4.56,15.98 -5.28,3.61 -12.05,2.57 -15.53,-2.33 -107.83,-152.82 -247.17,-290.72 -395.36,-422.78 -106.47,-94.98 -217.16,-187.206 -322.46,-281.737 -4.24,-3.828 -5.06,-10.176 -1.92,-15.109 2.41,-3.789 6.69,-5.957 11.02,-5.868 z m 826.18,834.724 c -1.57,-1.72 -1.5,-2.08 -2.54,-3.49 -1.28,-2.04 -2.92,-4.71 -4.31,-7.15 -1.4,-2.58 -2.12,-3.44 -3.19,-6.17 -235.64,-564.85 -583.9,-768.929 -750.8,-840.148 -5.61,-2.387 -8.41,-8.508 -6.5,-14.348 1.72,-5.332 6.88,-8.847 12.44,-8.718 0.53,0.007 1.05,0.047 1.56,0.132 3.41,0.52 6.99,1.028 10.67,1.645 0.09,0 0.17,0.016 0.25,0.027 0.16,0 0.3,0.02 0.44,0.039 157.17,23.516 384.66,93.954 572.63,271.801 4.81,5.3 13.44,14.63 21.39,22.79 7.82,7.77 13.25,13.57 15.66,14.73 0.84,0.69 1.68,1.37 2.54,2.05 0.09,0.11 0.17,0.21 0.28,0.31 23.91,25.28 60.44,73.51 90.32,116.44 15.03,21.49 28.47,41.54 38.15,56.3 4.84,7.4 8.78,13.39 11.56,17.69 1.39,2.08 2.5,3.81 3.18,4.92 0.2,0.27 0.55,0.74 1.1,1.65 0,-0.01 0.01,-0.01 0.01,-0.01 0.07,0.08 0.12,0.15 0.16,0.23 98.09,173.56 162.07,402.58 170.5,700.88 0.18,5.93 -3.89,11.58 -9.47,13.15 -5.55,1.57 -10.96,-1.41 -12.61,-6.95 -33.46,-114.06 -89.25,-251.03 -163.44,-337.79 0,0 0.02,-0.01 0.02,-0.01 z M 1986.35,374.504 c -6.79,0.789 -12.03,1.434 -15.66,1.902 -1.81,0.227 -3.19,0.41 -4.21,0.535 -1.21,0.129 -0.8,0.157 -2.14,0.266 -1.16,0.195 -2.28,0.477 -3.36,0.879 -6.38,2.324 -13.6,-0.481 -16.3,-6.359 -18.16,-39.532 -35.66,-80 -53.64,-120.418 -1.72,-3.789 -1.18,-8.184 1.4,-11.575 2.47,-3.211 6.45,-5.117 10.65,-5.086 0.23,0 0.46,0.02 0.7,0.032 74.05,4.05 258.5,18.281 549.53,116.414 6.07,2.051 9.41,8.078 7.77,14.023 -1.65,5.946 -7.77,9.922 -14.16,9.238 -70.14,-7.375 -136.15,-10.753 -195.4,-11.71 -85.33,-1.395 -156.69,2.277 -206.8,6.242 -25.06,1.992 -44.8,4.051 -58.38,5.617 z M 2660.1,623.34 c -2.46,5.742 -8.97,8.945 -15.12,7.441 -49.75,-12.101 -98.29,-21.308 -144.43,-28.097 v -0.008 c -80.23,-11.692 -153.49,-16.36 -214.99,-17.434 -58.66,-1.031 -106.64,1.215 -140.02,3.653 -16.7,1.25 -29.76,2.539 -38.74,3.507 -4.5,0.481 -7.93,0.891 -10.34,1.192 -1.83,0.183 -2.31,0.285 -3.11,0.379 -0.86,0.215 -1.6,0.304 -2.11,0.277 -0.67,0.152 -1.33,0.359 -1.98,0.613 -5.32,2.024 -11.39,0.403 -14.73,-3.965 -14.92,-19.503 -29.55,-39.187 -43.27,-59.433 -19.72,-28.992 -37.37,-60.235 -54.03,-92.656 -1.96,-3.77 -1.62,-8.282 0.82,-11.829 2.42,-3.457 6.52,-5.535 10.88,-5.507 h 0.29 c 7.2,0.226 15.28,0.578 24.44,1.093 100.15,6.594 331.55,33.567 640.97,185.84 5.6,2.774 7.98,9.199 5.47,14.934 z M 1468.75,531.492 c -13.7,20.188 -28.32,39.895 -43.28,59.406 -3.34,4.368 -9.38,6.016 -14.72,3.965 -0.97,-0.371 -2,-0.664 -3.09,-0.82 -1.72,-0.117 -1.67,-0.234 -4.15,-0.48 -16.58,-1.993 -86.34,-10.106 -189.02,-8.309 -61.52,1.074 -134.82,5.742 -215.025,17.43 -46.168,6.808 -94.695,15.996 -144.414,28.097 -6.156,1.504 -12.672,-1.711 -15.133,-7.441 -2.492,-5.735 -0.129,-12.141 5.492,-14.934 309.4,-152.312 540.84,-179.246 640.88,-185.808 9.23,-0.547 17.31,-0.926 24.49,-1.133 h 0.22 c 4.38,-0.031 8.53,2.043 10.94,5.515 2.45,3.547 2.75,8.059 0.83,11.829 -16.65,32.414 -34.28,63.652 -54.02,92.683 z m 208.51,-419.519 c -12.95,22.929 -24.99,46.445 -36.52,70.285 -0.87,1.785 -1.75,3.758 -2.8,5.926 -2.08,4.304 -6.63,7.05 -11.71,7.082 -6.11,0.039 -14.05,0.172 -23.91,0.535 -24.57,0.91 -60.88,3.262 -109.39,9.219 -5.96,0.742 -11.74,-2.469 -13.94,-7.696 -2.18,-5.234 -0.15,-11.172 4.84,-14.25 70.1,-43.277 133.8,-71.347 176.81,-87.7693 1.59,-0.6172 3.27,-0.9102 4.94,-0.9297 3.62,0 7.15,1.3672 9.71,3.918 3.73,3.711 4.5,9.227 1.97,13.68 z m 329.8,93.039 c -48.47,-5.957 -84.8,-8.285 -109.33,-9.203 -9.89,-0.379 -17.83,-0.504 -23.98,-0.536 -5.19,-0.05 -9.79,-2.89 -11.82,-7.285 -0.84,-1.855 -1.77,-3.84 -2.71,-5.871 -11.47,-23.66 -23.54,-47.215 -36.49,-70.144 -2.54,-4.473 -1.75,-9.981 1.98,-13.7035 2.54,-2.5468 6.08,-3.8945 9.7,-3.8945 1.66,0.0195 3.34,0.3047 4.95,0.918 43.03,16.445 106.73,44.504 176.81,87.773 5,3.094 7.01,9.024 4.84,14.219 -2.19,5.274 -7.97,8.469 -13.95,7.727 z m -913.9,89.902 c -103.812,32.762 -222.445,76.891 -352.863,137.801 -0.652,0.246 -1.313,0.476 -1.969,0.723 -65.617,18.242 -131.41,40.671 -195.363,68.054 l -5.129,1.059 c -0.34,-0.024 -0.727,-0.012 -1.121,0 -0.41,0.027 -0.957,0.086 -1.586,0.156 -57.918,8.231 -115.598,19.078 -165.387,29.805 -5.914,1.265 -12.168,-1.672 -14.894,-7.024 -2.735,-5.312 -1.118,-11.496 3.789,-14.707 223.261,-144.836 493.722,-211.238 695.243,-235.359 0.26,-0.07 0.83,-0.149 1.54,-0.238 10.74,-1.305 21.22,-2.5 31.55,-3.621 0.39,-0.032 0.79,-0.047 1.19,-0.071 6.09,-0.113 11.61,3.789 13.11,9.438 1.6,6.035 -1.89,12.058 -8.11,13.984 z M 3409.12,963.711 C 3314.9,887.258 3157,787.344 2961.11,740.586 c -2.3,-0.547 -4.66,-1.094 -7.03,-1.652 -1.38,-0.602 -2.73,-1.2 -4.1,-1.805 -256.8,-178.406 -490.62,-265.012 -660.94,-309.406 -6.19,-1.621 -10.04,-7.379 -8.95,-13.407 1.12,-5.968 6.75,-10.324 13.13,-10.214 h 0.22 c 67.11,2.355 141.52,8.039 219.78,19.011 1.31,0.196 2.54,0.383 3.94,0.586 75.3,10.606 154.2,26.281 232.97,48.149 0.55,0.195 1.09,0.379 1.65,0.582 2.83,1.242 12.09,4.582 17.31,5.547 0.89,0.168 1.19,0.207 1.27,0.214 1.3,-0.007 2.63,0.188 3.86,0.532 261.74,75.875 518.7,227.086 654.17,469.215 2.78,4.953 1.34,11.347 -3.42,15.253 -4.77,3.891 -11.42,4.133 -15.85,0.52 z M 3130.27,532.48 c -49.79,-10.683 -107.46,-21.562 -165.63,-29.812 -0.28,-0.031 -0.75,-0.07 -1.37,-0.102 -0.07,-0.027 -0.63,0 -1.97,-0.054 -1.41,-0.344 -2.83,-0.688 -4.25,-1.028 -63.98,-27.343 -129.75,-49.804 -195.33,-68.046 -0.67,-0.247 -1.34,-0.477 -1.99,-0.723 -130.46,-60.899 -249.08,-105.059 -352.91,-137.793 -6.16,-1.934 -9.69,-8.008 -8.1,-13.992 1.49,-5.649 7.04,-9.543 13.16,-9.414 0.35,0.007 0.75,0.039 1.14,0.066 10.33,1.094 20.85,2.285 31.52,3.563 0.73,0.089 1.31,0.207 2.14,0.332 200.98,24.035 471.46,90.468 694.67,235.304 4.93,3.211 6.53,9.387 3.81,14.727 -2.72,5.312 -9.01,8.281 -14.89,6.972 z M 1780,117.938 c 13.16,22.445 147.59,330.492 220.09,437.05 0,-0.008 0.03,-0.008 0.03,-0.008 238.68,344.7 629.83,587.11 909.15,893.8 144.73,155.57 260.85,324.1 324.29,507.75 49.54,142.92 68.44,292.64 52.22,456.43 -0.6,6.08 -5.27,11.2 -10.78,11.87 -5.53,0.67 -10.24,-3.29 -10.9,-9.23 -10.47,-92.47 -32.54,-183.66 -64.19,-271.82 -88.49,-250.1 -261.18,-477.8 -446.45,-656.32 C 2574.03,1312.05 2383.28,1180.14 2287.61,1087.3 2027.79,837.813 1888.96,504.758 1750,186.035 1611.03,504.766 1472.21,837.82 1212.34,1087.35 c -95.67,92.82 -286.418,224.72 -465.762,400.07 -185.285,178.56 -357.984,406.26 -446.461,656.33 -31.648,88.18 -53.765,179.36 -64.222,271.85 -0.668,5.92 -5.375,9.9 -10.899,9.23 -5.523,-0.69 -10.187,-5.81 -10.773,-11.9 -16.176,-163.77 2.703,-313.48 52.226,-456.41 C 329.91,1772.9 445.996,1604.34 590.785,1448.71 870.074,1142.08 1261.2,899.656 1499.9,554.98 1572.42,448.477 1706.82,140.371 1720,117.922 1704.9,83.8867 1689.65,50.1055 1674.1,16.7188 1671.57,11.2383 1673.75,4.94922 1679.2,1.84766 1681.36,0.613281 1683.77,0 1686.16,0 c 3.71,-0.0117188 7.36,1.40625 9.95,4.12109 19.67,20.52731 37.43,42.92971 53.89,66.68751 16.46,-23.7578 34.24,-46.1602 53.94,-66.69922 2.58,-2.70313 6.25,-4.1210988 9.94,-4.10938 2.41,0 4.82,0.613281 6.96,1.84766 5.46,3.10156 7.63,9.39064 5.09,14.85154 -15.56,33.3985 -30.81,67.1875 -45.93,101.2388 z m -522.4,661.644 c -3.13,3.133 -7.83,4.305 -12.21,3.035 -0.75,-0.215 -1.44,-0.344 -2.07,-0.41 -2.78,-0.125 -7.18,-0.508 -17.26,-0.891 -10.92,-0.418 -26.88,-0.711 -47.1,-0.339 -36.49,0.711 -86.98,3.742 -147.03,12.683 -51.184,7.688 -109.41,19.953 -171.305,38.899 -6.055,1.882 -12.699,-1.102 -15.383,-6.875 -2.687,-5.774 -0.492,-12.364 5.106,-15.246 209.912,-107.95 397.352,-137.848 487.222,-146.395 0.34,-0.051 0.7,-0.07 1.04,-0.07 4.71,-0.067 9.16,2.445 11.41,6.515 2.43,4.395 1.84,9.727 -1.49,13.446 -29,32.492 -59.42,64.375 -90.93,95.648 z m -9.1,-416.926 c -59.27,0.969 -125.26,4.364 -195.43,11.699 -6.43,0.665 -12.54,-3.292 -14.16,-9.238 -1.64,-5.945 1.7,-11.972 7.77,-14.023 291.06,-98.133 475.52,-112.364 549.55,-116.414 0.23,-0.012 0.47,-0.032 0.69,-0.032 4.18,-0.031 8.19,1.875 10.62,5.086 2.59,3.391 3.14,7.786 1.45,11.575 -17.97,40.418 -35.47,80.886 -53.67,120.39 -2.71,5.86 -9.89,8.711 -16.29,6.387 -1.13,-0.41 -2.27,-0.723 -3.48,-0.918 -1.2,-0.078 -0.86,-0.125 -2.04,-0.227 -14.55,-1.812 -124.89,-16.863 -285.01,-14.285 z M 729.578,478.215 c 0.031,0 0.039,-0.012 0.07,-0.012 0.11,-0.012 0.442,-0.058 1.286,-0.226 5.222,-0.957 14.492,-4.297 17.246,-5.536 0.554,-0.195 1.129,-0.398 1.679,-0.593 78.829,-21.868 157.7,-37.532 233.239,-48.157 1.175,-0.183 2.351,-0.382 3.382,-0.527 78.58,-11.023 153.03,-16.707 220.12,-19.055 h 0.2 c 6.38,-0.105 12.01,4.239 13.13,10.207 1.11,6.016 -2.74,11.786 -8.96,13.407 -170.32,44.394 -404.107,130.988 -660.966,309.406 -1.367,0.605 -2.734,1.203 -4.09,1.797 -2.336,0.566 -4.664,1.133 -7.125,1.687 -195.777,46.75 -353.672,146.633 -447.8671,223.086 -4.4414,3.598 -11.1133,3.383 -15.8594,-0.515 -4.7539,-3.899 -6.1914,-10.313 -3.418,-15.262 C 207.078,705.809 464.086,554.57 725.82,478.723 c 1.246,-0.176 2.504,-0.332 3.758,-0.508 z M 310.496,964.297 C 511.555,767.441 782.738,677.098 1000.09,645.555 c 0.14,-0.008 0.28,-0.039 0.4,-0.055 0.18,-0.023 0.37,-0.051 0.55,-0.078 0.05,-0.012 0.11,-0.031 0.16,-0.039 49.74,-7.406 96.81,-11.992 139.91,-14.653 0.17,-0.007 0.34,-0.015 0.5,-0.015 6.25,-0.129 11.82,4.168 12.96,10.133 1.19,6.125 -2.69,11.996 -8.89,13.527 -190.309,46.855 -469.278,160.469 -703.629,417.225 -13.988,13.26 -27.238,26.44 -40.309,40.16 -52.605,55.28 -101.554,119.82 -144.59,194.24 -0.757,0.93 -1.515,1.86 -2.289,2.79 -119.527,102.56 -191.5857,249.04 -232.0935,374.65 -1.8164,5.6 -7.5742,8.49 -13.38278,6.72 -5.82813,-1.77 -9.847658,-7.62 -9.3437512,-13.63 C 25.9141,1357.03 144.859,1125.18 310.508,964.305 Z m 493.281,220.233 c -148.125,132.05 -287.476,269.96 -395.336,422.75 -3.484,4.93 -10.226,5.94 -15.527,2.36 -5.269,-3.59 -7.262,-10.57 -4.523,-16 258.957,-512.47 599.32,-666.738 724.999,-711.12 1.24,-0.45 2.53,-0.672 3.83,-0.715 4.32,-0.086 8.6,2.101 11.02,5.91 3.13,4.902 2.31,11.258 -1.95,15.066 -105.32,94.516 -216.009,186.759 -322.513,281.749"
         style="fill:#100f0d;fill-opacity:1;fill-rule:nonzero;stroke:none"
         id="path41"
         inkscape:connector-curvature="0" /></g><g
       id="g1009"><g
         id="g996"><g
           id="g282"
           transform="matrix(1.5076985,0,0,-1.8253563,-1876.3931,522.07775)"
           clip-path="url(#clipPath519)">
		<g
   id="g272">
			<path
   style="fill:#1c1c1b"
   inkscape:connector-curvature="0"
   class="st0"
   d="m 1046.5,160.7 c -0.5,1.9 -0.9,4 -1.3,6.3 -2.8,16.1 -2.9,36.4 -0.1,60.6 l -0.8,-1.5 -3.9,14 -18,18.7 c -3,-19.1 -3.2,-36.4 -0.5,-51.5 2.3,-12.6 6.5,-23.7 12.7,-33 4,-6.1 8.3,-10.5 11.9,-13.6 z"
   id="path266" />
			<path
   style="fill:#1c1c1b"
   inkscape:connector-curvature="0"
   class="st0"
   d="m 1096.8,246.5 -3.1,-3.2 -4.3,6.6 -10.9,-11.3 -16.8,13.3 -5.1,-19.1 -0.7,0.9 c 0.2,-11.4 1.2,-37.1 5,-54.6 5.8,12.7 14.1,28.8 24.8,48.1 4.1,7 7.9,13.7 11.1,19.3 z"
   id="path268" />
			<path
   style="fill:#1c1c1b"
   inkscape:connector-curvature="0"
   class="st0"
   d="m 1065.1,130.9 c 0,0 -88.9,32.7 -46.8,132.1 -16.1,-92.7 37.4,-114 37.6,-114.1 -0.1,0.1 -14.8,20.1 -4.7,90.4 0,0 0,-54.2 9.1,-73.8 12.9,33 49.8,94.5 50.5,95.6 0,0 0,0 0,0 l 17.9,-23.3 c 0.1,0.1 -66,-57.8 -63.6,-106.9 z"
   id="path270" />
		</g>
		<g
   id="g280">
			<path
   style="fill:#1c1c1b"
   inkscape:connector-curvature="0"
   class="st0"
   d="m 1220.3,160.7 c 0.5,1.9 0.9,4 1.3,6.3 2.8,16.1 2.9,36.4 0.1,60.6 l 0.8,-1.5 3.9,14 18,18.7 c 3,-19.1 3.2,-36.4 0.5,-51.5 -2.3,-12.6 -6.5,-23.7 -12.7,-33 -4,-6.1 -8.3,-10.5 -11.9,-13.6 z"
   id="path274" />
			<path
   style="fill:#1c1c1b"
   inkscape:connector-curvature="0"
   class="st0"
   d="m 1170,246.5 3.1,-3.2 4.3,6.6 10.9,-11.3 16.8,13.3 5.1,-19.1 0.7,0.9 c -0.2,-11.4 -1.2,-37.1 -5,-54.6 -5.8,12.7 -14.1,28.8 -24.8,48.1 -4.1,7 -7.9,13.7 -11.1,19.3 z"
   id="path276" />
			<path
   style="fill:#1c1c1b"
   inkscape:connector-curvature="0"
   class="st0"
   d="m 1201.7,130.9 c 0,0 88.9,32.7 46.8,132.1 16.1,-92.7 -37.4,-114 -37.6,-114.1 0.1,0.1 14.8,20.1 4.7,90.4 0,0 0,-54.2 -9.1,-73.8 -12.9,33 -49.8,94.5 -50.5,95.6 0,0 0,0 0,0 l -17.9,-23.3 c -0.1,0.1 66,-57.8 63.6,-106.9 z"
   id="path278" />
		</g>
	</g></g><path
         id="path834"
         d="m -96.241143,30.204194 c 10.136381,1.62812 19.785022,-4.968876 23.295054,-15.483272 7.672634,-22.9862027 28.73663,-29.439335 39.666916,-31.256549 l -0.06366,-9.091076 24.5459577,15.177017 -24.3251887,15.6191523 -0.09927,-10.440365 c -16.641404,-0.610433 -26.92895,13.769032 -31.73969,37.4390427 -5.406587,26.40928 -47.646916,11.9462 -47.646916,11.9462 -1.57697,-0.74392 -8.87149,-26.926434 -8.87149,-26.926434 10.17716,8.309881 18.5428,11.945344 25.238314,13.016284 z"
         class="st0"
         inkscape:connector-curvature="0"
         style="fill:#1c1c1b;stroke-width:0.55185062" /></g></g><style
     id="style226"
     type="text/css">
	.st0{fill:#1C1C1B;}
	.st1{fill:#FFFFFF;}
	.st2{fill:#231E1E;}
</style><style
     id="style706"
     type="text/css">
	.st0{fill:#1C1C1B;}
	.st1{fill:#FFFFFF;}
	.st2{fill:#231E1E;}
</style></svg>